<svg version="1.1" id="Layer_1" xmlns="http://www.w3.org/2000/svg" xmlns:xlink="http://www.w3.org/1999/xlink" x="0px" y="0px"
	 width="100%" viewBox="0 0 360 360" enable-background="new 0 0 360 360" xml:space="preserve">
<path fill="#000000" opacity="1.000000" stroke="none" 
	d="
M162.000000,361.000000 
	C108.018562,361.000000 54.537132,361.000000 1.027848,361.000000 
	C1.027848,241.060211 1.027848,121.120415 1.027848,1.090312 
	C120.898094,1.090312 240.796280,1.090312 360.847229,1.090312 
	C360.847229,120.999847 360.847229,240.999908 360.847229,361.000000 
	C294.787109,361.000000 228.643555,361.000000 162.000000,361.000000 
M71.158005,168.241379 
	C77.079224,163.620773 83.456894,164.779510 90.131554,166.610657 
	C87.709869,173.631271 85.614372,180.547623 82.949333,187.237076 
	C78.850586,197.525314 74.053108,207.460175 65.495300,214.988205 
	C58.450424,221.185364 45.846725,224.985260 36.757313,219.291794 
	C33.599880,217.314026 30.423334,215.366791 26.196394,212.749908 
	C31.733282,220.871658 37.836872,225.905106 46.873550,225.967194 
	C62.038887,226.071396 73.517677,219.360733 82.052177,206.919968 
	C89.628181,195.876404 94.095970,183.544769 98.037926,170.931717 
	C98.916168,168.121597 99.671394,165.942566 103.797081,165.736496 
	C108.696579,165.491791 112.546463,162.153000 114.904121,158.033813 
	C110.728867,158.848007 106.510269,159.670654 101.153870,160.715179 
	C104.025291,151.811172 106.419968,144.385483 108.844978,136.865753 
	C123.839600,144.467865 145.400375,143.497177 159.305511,134.914719 
	C169.948914,128.345490 172.271637,113.763153 163.055771,103.983818 
	C161.204666,116.583939 154.097336,124.424713 143.339340,129.236298 
	C132.889633,133.910004 122.227699,135.535583 109.726753,132.235977 
	C114.002556,126.733116 117.705482,121.967545 121.277809,117.370049 
	C114.338722,115.079964 108.957214,120.032471 104.607346,127.012337 
	C103.061371,129.493027 101.974541,130.243179 98.863106,129.572052 
	C91.443039,127.971542 83.881325,126.442314 76.331650,126.178848 
	C67.253914,125.862061 55.822300,135.866058 52.559921,144.521759 
	C66.594162,131.113480 82.453789,128.646317 99.762115,135.623322 
	C97.459465,141.803635 95.021866,147.745041 93.061943,153.840057 
	C91.949753,157.298767 90.740059,159.048523 86.485809,159.254044 
	C82.179779,159.462051 77.839279,161.424362 73.787506,163.231689 
	C72.131294,163.970459 71.194046,166.320999 69.363525,168.118057 
	C69.255447,168.639008 69.147369,169.159973 69.039291,169.680923 
	C69.320473,169.899261 69.601662,170.117599 69.882843,170.335938 
	C70.118378,169.795853 70.353912,169.255753 71.158005,168.241379 
M118.336464,183.269867 
	C118.483154,183.373352 118.629852,183.476822 118.337631,184.135147 
	C115.848846,188.264130 112.540367,192.135544 111.135887,196.605225 
	C110.051880,200.055008 110.401306,204.732300 111.995041,207.924393 
	C112.813789,209.564270 118.668617,210.617233 120.642082,209.378189 
	C125.791946,206.144836 129.502960,205.381927 135.397919,208.663208 
	C142.026443,212.352783 149.092499,208.709579 155.318695,205.022980 
	C162.944092,211.898438 171.398956,211.688736 181.176468,205.343918 
	C184.934570,206.813553 187.746811,208.848480 190.497498,208.768417 
	C194.558685,208.650192 198.613129,207.154388 202.596436,205.991714 
	C204.576584,205.413727 205.679810,204.719650 207.833893,206.744080 
	C210.572571,209.317947 214.423096,211.437653 218.879868,209.085678 
	C222.489365,207.180832 226.338806,205.730652 229.977722,204.124725 
	C232.075882,212.144440 238.873856,212.459442 248.608231,204.210297 
	C251.514938,210.191574 255.413437,211.637726 261.614105,209.102844 
	C262.597626,208.700760 264.068085,207.976257 264.661743,208.373856 
	C269.313904,211.489456 273.615021,209.664993 278.198700,207.849136 
	C277.630890,209.100403 276.807404,209.830460 275.978668,210.554535 
	C270.664490,215.197632 264.721985,219.310226 260.223541,224.641418 
	C256.302856,229.287888 253.752808,235.190720 251.187302,240.807968 
	C250.575348,242.147842 251.851166,245.722092 253.079071,246.211853 
	C254.970673,246.966324 258.016571,246.661148 259.794556,245.554810 
	C268.404175,240.197632 273.863525,231.812408 277.347137,222.789398 
	C281.340393,212.446259 290.005463,208.683090 298.360321,203.873871 
	C300.817261,208.577225 304.738708,210.675522 309.388275,209.871506 
	C316.398895,208.659210 323.078674,206.332794 326.831848,200.101837 
	C320.994781,202.074600 315.262787,204.387024 309.316528,205.793152 
	C307.529694,206.215668 305.146057,204.114304 303.035828,203.169159 
	C304.422821,201.560913 305.532013,199.520096 307.245209,198.419693 
	C314.455780,193.788177 321.384369,188.841827 325.761688,181.297302 
	C326.641876,179.780258 326.555695,176.250092 325.492340,175.373032 
	C323.535095,173.758713 320.258453,172.252151 317.993896,172.760376 
	C308.129822,174.974152 301.739563,182.092224 299.346191,191.233978 
	C297.418823,198.595734 294.191803,203.248810 286.839264,205.661667 
	C287.150238,204.572266 287.306488,203.644806 287.670624,202.807800 
	C291.509003,193.985535 295.442352,185.203674 299.171570,176.335846 
	C299.688599,175.106400 299.242920,173.472076 299.242920,172.025192 
	C298.733215,171.919296 298.223511,171.813385 297.713806,171.707474 
	C296.311859,173.408325 294.909912,175.109161 293.928528,176.299759 
	C291.347748,175.817719 289.140594,174.918915 287.018951,175.088684 
	C273.940247,176.135254 262.904541,190.829208 261.930176,201.753906 
	C261.775757,203.485580 260.863983,205.608582 259.573364,206.625137 
	C258.651093,207.351547 255.829575,207.118576 255.080444,206.253220 
	C254.095932,205.115997 254.095612,202.936813 254.098206,201.206329 
	C254.099747,200.168655 254.819885,199.078217 255.377655,198.103409 
	C262.091522,186.369644 268.959320,174.721512 275.495087,162.889801 
	C277.426941,159.392517 278.444031,155.389938 279.880310,151.618912 
	C279.119293,151.226440 278.358246,150.833969 277.597229,150.441513 
	C270.482880,157.804382 266.730988,167.532242 261.175201,176.025818 
	C257.026581,171.043335 252.842880,170.628403 246.858078,174.659012 
	C238.909531,180.012146 234.003174,187.722107 229.915375,196.186523 
	C227.423126,201.347122 223.497528,205.371964 217.385895,205.870300 
	C215.664139,206.010696 213.815231,204.591614 212.024643,203.887802 
	C213.073532,202.253464 213.856873,200.343536 215.217346,199.032532 
	C221.067352,193.395218 227.297516,188.134201 232.887543,182.258835 
	C234.186035,180.894073 234.425949,177.166931 233.489929,175.415588 
	C232.568741,173.691956 229.539963,172.238388 227.427979,172.227615 
	C224.877899,172.214630 222.024063,173.394196 219.816101,174.842056 
	C210.569489,180.905441 205.204361,189.402420 204.705551,201.379654 
	C199.801727,202.834457 194.678345,204.354385 189.554947,205.874329 
	C189.242615,205.325882 188.930298,204.777420 188.617966,204.228973 
	C189.434357,202.969070 190.111328,201.586487 191.092438,200.471527 
	C194.469147,196.634216 198.171356,193.065277 201.351913,189.076965 
	C209.560516,178.783554 216.354950,167.652145 218.649521,154.463821 
	C219.089722,151.933701 217.884384,148.662201 216.391235,146.434418 
	C215.592499,145.242676 212.306641,144.792236 210.600693,145.366425 
	C208.425201,146.098679 206.290390,147.886551 204.868179,149.770569 
	C195.556381,162.105820 188.321823,175.601913 185.134995,190.785675 
	C183.373047,199.180557 178.357529,203.442627 170.825394,205.637085 
	C166.674545,206.846420 163.140945,205.806717 160.718155,201.571365 
	C163.576706,199.624466 166.294037,197.880829 168.896164,195.979523 
	C174.563110,191.838852 180.524979,187.814728 182.839722,180.768799 
	C183.442902,178.932785 182.935043,175.699127 181.647491,174.538803 
	C180.075867,173.122452 176.903870,172.281036 174.840500,172.811371 
	C163.688400,175.677841 157.714279,183.706329 155.032761,194.437347 
	C153.230438,201.649872 147.501053,206.560974 140.593582,205.898727 
	C138.682312,205.715500 136.892532,204.265060 135.047012,203.396027 
	C136.231140,201.860565 137.272385,200.184128 138.624176,198.814102 
	C144.408234,192.951996 150.514694,187.382965 155.936768,181.209244 
	C157.057938,179.932648 156.623657,175.754913 155.337738,174.316742 
	C153.960052,172.775925 150.501465,171.931732 148.346832,172.444977 
	C137.227768,175.093536 129.918396,186.926849 128.090622,195.867325 
	C126.852989,201.921219 122.754135,205.324554 116.010750,204.529022 
	C115.702248,196.599655 121.179443,191.562943 125.506943,186.124954 
	C129.855133,180.660950 130.038818,179.119293 125.014328,174.059143 
	C121.505280,175.743362 117.996231,177.427582 114.408066,179.149765 
	C114.642853,176.103943 114.834671,173.615494 115.032433,171.049973 
	C108.004951,171.497681 104.325264,176.147949 105.516373,182.088669 
	C105.769547,183.351395 105.605782,185.067078 104.914841,186.086639 
	C101.709396,190.816620 98.250763,195.375000 95.040268,199.778793 
	C101.230820,199.043198 105.630333,194.234680 108.387741,188.726318 
	C110.657890,184.191299 113.955063,183.528381 118.336464,183.269867 
z"/>
<path fill="#FEFEFE" opacity="1.000000" stroke="none" 
	d="
M117.926140,182.921051 
	C113.955063,183.528381 110.657890,184.191299 108.387741,188.726318 
	C105.630333,194.234680 101.230820,199.043198 95.040268,199.778793 
	C98.250763,195.375000 101.709396,190.816620 104.914841,186.086639 
	C105.605782,185.067078 105.769547,183.351395 105.516373,182.088669 
	C104.325264,176.147949 108.004951,171.497681 115.032433,171.049973 
	C114.834671,173.615494 114.642853,176.103943 114.408066,179.149765 
	C117.996231,177.427582 121.505280,175.743362 125.011948,174.054199 
	C130.038818,179.119293 129.855133,180.660950 125.506943,186.124954 
	C121.179443,191.562943 115.702248,196.599655 116.010750,204.529022 
	C122.754135,205.324554 126.852989,201.921219 128.090622,195.867325 
	C129.918396,186.926849 137.227768,175.093536 148.346832,172.444977 
	C150.501465,171.931732 153.960052,172.775925 155.337738,174.316742 
	C156.623657,175.754913 157.057938,179.932648 155.936768,181.209244 
	C150.514694,187.382965 144.408234,192.951996 138.624176,198.814102 
	C137.272385,200.184128 136.231140,201.860565 135.047012,203.396027 
	C136.892532,204.265060 138.682312,205.715500 140.593582,205.898727 
	C147.501053,206.560974 153.230438,201.649872 155.032761,194.437347 
	C157.714279,183.706329 163.688400,175.677841 174.840500,172.811371 
	C176.903870,172.281036 180.075867,173.122452 181.647491,174.538803 
	C182.935043,175.699127 183.442902,178.932785 182.839722,180.768799 
	C180.524979,187.814728 174.563110,191.838852 168.896164,195.979523 
	C166.294037,197.880829 163.576706,199.624466 160.718155,201.571365 
	C163.140945,205.806717 166.674545,206.846420 170.825394,205.637085 
	C178.357529,203.442627 183.373047,199.180557 185.134995,190.785675 
	C188.321823,175.601913 195.556381,162.105820 204.868179,149.770569 
	C206.290390,147.886551 208.425201,146.098679 210.600693,145.366425 
	C212.306641,144.792236 215.592499,145.242676 216.391235,146.434418 
	C217.884384,148.662201 219.089722,151.933701 218.649521,154.463821 
	C216.354950,167.652145 209.560516,178.783554 201.351913,189.076965 
	C198.171356,193.065277 194.469147,196.634216 191.092438,200.471527 
	C190.111328,201.586487 189.434357,202.969070 188.617966,204.228973 
	C188.930298,204.777420 189.242615,205.325882 189.554947,205.874329 
	C194.678345,204.354385 199.801727,202.834457 204.705551,201.379654 
	C205.204361,189.402420 210.569489,180.905441 219.816101,174.842056 
	C222.024063,173.394196 224.877899,172.214630 227.427979,172.227615 
	C229.539963,172.238388 232.568741,173.691956 233.489929,175.415588 
	C234.425949,177.166931 234.186035,180.894073 232.887543,182.258835 
	C227.297516,188.134201 221.067352,193.395218 215.217346,199.032532 
	C213.856873,200.343536 213.073532,202.253464 212.024643,203.887802 
	C213.815231,204.591614 215.664139,206.010696 217.385895,205.870300 
	C223.497528,205.371964 227.423126,201.347122 229.915375,196.186523 
	C234.003174,187.722107 238.909531,180.012146 246.858078,174.659012 
	C252.842880,170.628403 257.026581,171.043335 261.175201,176.025818 
	C266.730988,167.532242 270.482880,157.804382 277.597229,150.441513 
	C278.358246,150.833969 279.119293,151.226440 279.880310,151.618912 
	C278.444031,155.389938 277.426941,159.392517 275.495087,162.889801 
	C268.959320,174.721512 262.091522,186.369644 255.377655,198.103409 
	C254.819885,199.078217 254.099747,200.168655 254.098206,201.206329 
	C254.095612,202.936813 254.095932,205.115997 255.080444,206.253220 
	C255.829575,207.118576 258.651093,207.351547 259.573364,206.625137 
	C260.863983,205.608582 261.775757,203.485580 261.930176,201.753906 
	C262.904541,190.829208 273.940247,176.135254 287.018951,175.088684 
	C289.140594,174.918915 291.347748,175.817719 293.928528,176.299759 
	C294.909912,175.109161 296.311859,173.408325 297.713806,171.707474 
	C298.223511,171.813385 298.733215,171.919296 299.242920,172.025192 
	C299.242920,173.472076 299.688599,175.106400 299.171570,176.335846 
	C295.442352,185.203674 291.509003,193.985535 287.670624,202.807800 
	C287.306488,203.644806 287.150238,204.572266 286.839264,205.661667 
	C294.191803,203.248810 297.418823,198.595734 299.346191,191.233978 
	C301.739563,182.092224 308.129822,174.974152 317.993896,172.760376 
	C320.258453,172.252151 323.535095,173.758713 325.492340,175.373032 
	C326.555695,176.250092 326.641876,179.780258 325.761688,181.297302 
	C321.384369,188.841827 314.455780,193.788177 307.245209,198.419693 
	C305.532013,199.520096 304.422821,201.560913 303.035828,203.169159 
	C305.146057,204.114304 307.529694,206.215668 309.316528,205.793152 
	C315.262787,204.387024 320.994781,202.074600 326.831848,200.101837 
	C323.078674,206.332794 316.398895,208.659210 309.388275,209.871506 
	C304.738708,210.675522 300.817261,208.577225 298.360321,203.873871 
	C290.005463,208.683090 281.340393,212.446259 277.347137,222.789398 
	C273.863525,231.812408 268.404175,240.197632 259.794556,245.554810 
	C258.016571,246.661148 254.970673,246.966324 253.079071,246.211853 
	C251.851166,245.722092 250.575348,242.147842 251.187302,240.807968 
	C253.752808,235.190720 256.302856,229.287888 260.223541,224.641418 
	C264.721985,219.310226 270.664490,215.197632 275.978668,210.554535 
	C276.807404,209.830460 277.630890,209.100403 278.198700,207.849136 
	C273.615021,209.664993 269.313904,211.489456 264.661743,208.373856 
	C264.068085,207.976257 262.597626,208.700760 261.614105,209.102844 
	C255.413437,211.637726 251.514938,210.191574 248.608231,204.210297 
	C238.873856,212.459442 232.075882,212.144440 229.977722,204.124725 
	C226.338806,205.730652 222.489365,207.180832 218.879868,209.085678 
	C214.423096,211.437653 210.572571,209.317947 207.833893,206.744080 
	C205.679810,204.719650 204.576584,205.413727 202.596436,205.991714 
	C198.613129,207.154388 194.558685,208.650192 190.497498,208.768417 
	C187.746811,208.848480 184.934570,206.813553 181.176468,205.343918 
	C171.398956,211.688736 162.944092,211.898438 155.318695,205.022980 
	C149.092499,208.709579 142.026443,212.352783 135.397919,208.663208 
	C129.502960,205.381927 125.791946,206.144836 120.642082,209.378189 
	C118.668617,210.617233 112.813789,209.564270 111.995041,207.924393 
	C110.401306,204.732300 110.051880,200.055008 111.135887,196.605225 
	C112.540367,192.135544 115.848846,188.264130 118.778870,183.665909 
	C119.351738,182.861786 119.483353,182.526901 119.614960,182.192001 
	C119.052017,182.435013 118.489082,182.678040 117.926140,182.921051 
M213.968018,156.223938 
	C213.711456,154.458130 213.454895,152.692322 213.198334,150.926514 
	C212.513168,150.777115 211.828003,150.627731 211.142838,150.478333 
	C198.912842,162.594101 193.881805,178.523178 188.505920,195.120407 
	C197.516037,188.526764 209.245972,170.420486 213.968018,156.223938 
M270.259613,203.784073 
	C272.755127,206.452957 274.757141,204.332321 276.517853,202.894470 
	C282.720337,197.829330 287.483826,191.739334 289.040588,183.636108 
	C289.285217,182.362823 289.159668,181.018417 289.205261,179.706924 
	C287.708862,179.730835 285.897766,179.210480 284.765991,179.864960 
	C275.906219,184.988358 269.585297,191.863174 270.259613,203.784073 
M253.044327,188.527054 
	C254.221573,185.533371 255.398819,182.539703 256.741028,179.126602 
	C247.421692,179.411560 236.937469,191.111526 237.066498,199.959595 
	C237.090607,201.612305 237.958221,203.252701 238.436569,204.898773 
	C240.176666,204.211304 242.534683,204.015488 243.544189,202.746704 
	C246.944931,198.472488 249.866135,193.816727 253.044327,188.527054 
M260.971649,239.541809 
	C266.835144,232.893585 271.460388,225.517258 274.380432,217.122559 
	C264.590637,223.213135 258.097412,231.642548 255.810394,243.319427 
	C257.350677,242.227554 258.890991,241.135681 260.971649,239.541809 
M310.306671,191.977051 
	C315.073822,187.617401 322.363556,184.955353 321.681946,175.663223 
	C313.105804,179.760910 307.982330,185.321106 305.482910,195.069550 
	C307.628906,193.484314 308.595093,192.770615 310.306671,191.977051 
M141.981903,190.528564 
	C145.092484,187.113144 148.252808,183.740295 151.255005,180.232132 
	C151.661758,179.756836 151.593582,178.299728 151.165192,177.850677 
	C150.755814,177.421570 149.468124,177.433685 148.774734,177.733475 
	C141.660599,180.809372 137.920135,186.488251 135.782410,194.778168 
	C138.277313,193.128647 139.858124,192.083481 141.981903,190.528564 
M224.069199,178.412308 
	C218.211441,181.993134 215.200806,187.494965 213.773987,194.232605 
	C218.978729,190.388428 223.587601,186.006744 227.995377,181.431335 
	C228.652771,180.748947 228.364868,179.155914 228.514282,177.984161 
	C227.252060,177.998230 225.989822,178.012283 224.069199,178.412308 
M169.490448,181.966232 
	C166.816925,185.675598 164.143387,189.384979 161.469864,193.094345 
	C161.875336,193.377884 162.280823,193.661438 162.686295,193.944977 
	C171.839310,189.798737 178.442657,182.153412 177.060593,176.095428 
	C174.497009,178.036743 172.249069,179.739044 169.490448,181.966232 
z"/>
<path fill="#FEFEFE" opacity="1.000000" stroke="none" 
	d="
M69.929710,167.938293 
	C71.194046,166.320999 72.131294,163.970459 73.787506,163.231689 
	C77.839279,161.424362 82.179779,159.462051 86.485809,159.254044 
	C90.740059,159.048523 91.949753,157.298767 93.061943,153.840057 
	C95.021866,147.745041 97.459465,141.803635 99.762115,135.623322 
	C82.453789,128.646317 66.594162,131.113480 52.559921,144.521759 
	C55.822300,135.866058 67.253914,125.862061 76.331650,126.178848 
	C83.881325,126.442314 91.443039,127.971542 98.863106,129.572052 
	C101.974541,130.243179 103.061371,129.493027 104.607346,127.012337 
	C108.957214,120.032471 114.338722,115.079964 121.277809,117.370049 
	C117.705482,121.967545 114.002556,126.733116 109.726753,132.235977 
	C122.227699,135.535583 132.889633,133.910004 143.339340,129.236298 
	C154.097336,124.424713 161.204666,116.583939 163.055771,103.983818 
	C172.271637,113.763153 169.948914,128.345490 159.305511,134.914719 
	C145.400375,143.497177 123.839600,144.467865 108.844978,136.865753 
	C106.419968,144.385483 104.025291,151.811172 101.153870,160.715179 
	C106.510269,159.670654 110.728867,158.848007 114.904121,158.033813 
	C112.546463,162.153000 108.696579,165.491791 103.797081,165.736496 
	C99.671394,165.942566 98.916168,168.121597 98.037926,170.931717 
	C94.095970,183.544769 89.628181,195.876404 82.052177,206.919968 
	C73.517677,219.360733 62.038887,226.071396 46.873550,225.967194 
	C37.836872,225.905106 31.733282,220.871658 26.196394,212.749908 
	C30.423334,215.366791 33.599880,217.314026 36.757313,219.291794 
	C45.846725,224.985260 58.450424,221.185364 65.495300,214.988205 
	C74.053108,207.460175 78.850586,197.525314 82.949333,187.237076 
	C85.614372,180.547623 87.709869,173.631271 90.131554,166.610657 
	C83.456894,164.779510 77.079224,163.620773 70.716278,168.277832 
	C70.159599,168.188965 70.044655,168.063629 69.929710,167.938293 
z"/>
<path fill="#FEFEFE" opacity="1.000000" stroke="none" 
	d="
M70.431992,168.514984 
	C70.353912,169.255753 70.118378,169.795853 69.882843,170.335938 
	C69.601662,170.117599 69.320473,169.899261 69.039291,169.680923 
	C69.147369,169.159973 69.255447,168.639008 69.646622,168.028168 
	C70.044655,168.063629 70.159599,168.188965 70.431992,168.514984 
z"/>
<path fill="#000000" opacity="1.000000" stroke="none" 
	d="
M213.776398,156.590118 
	C209.245972,170.420486 197.516037,188.526764 188.505920,195.120407 
	C193.881805,178.523178 198.912842,162.594101 211.142838,150.478333 
	C211.828003,150.627731 212.513168,150.777115 213.198334,150.926514 
	C213.454895,152.692322 213.711456,154.458130 213.776398,156.590118 
z"/>
<path fill="#000000" opacity="1.000000" stroke="none" 
	d="
M270.139526,203.379028 
	C269.585297,191.863174 275.906219,184.988358 284.765991,179.864960 
	C285.897766,179.210480 287.708862,179.730835 289.205261,179.706909 
	C289.159668,181.018417 289.285217,182.362823 289.040588,183.636108 
	C287.483826,191.739334 282.720337,197.829330 276.517853,202.894470 
	C274.757141,204.332321 272.755127,206.452957 270.139526,203.379028 
z"/>
<path fill="#000000" opacity="1.000000" stroke="none" 
	d="
M253.007538,188.916977 
	C249.866135,193.816727 246.944931,198.472488 243.544189,202.746704 
	C242.534683,204.015488 240.176666,204.211304 238.436569,204.898773 
	C237.958221,203.252701 237.090607,201.612305 237.066498,199.959595 
	C236.937469,191.111526 247.421692,179.411560 256.741028,179.126602 
	C255.398819,182.539703 254.221573,185.533371 253.007538,188.916977 
z"/>
<path fill="#000000" opacity="1.000000" stroke="none" 
	d="
M260.701477,239.792816 
	C258.890991,241.135681 257.350677,242.227554 255.810394,243.319427 
	C258.097412,231.642548 264.590637,223.213135 274.380432,217.122559 
	C271.460388,225.517258 266.835144,232.893585 260.701477,239.792816 
z"/>
<path fill="#000000" opacity="1.000000" stroke="none" 
	d="
M309.933960,192.016983 
	C308.595093,192.770615 307.628906,193.484314 305.482910,195.069550 
	C307.982330,185.321106 313.105804,179.760910 321.681946,175.663223 
	C322.363556,184.955353 315.073822,187.617401 309.933960,192.016983 
z"/>
<path fill="#000000" opacity="1.000000" stroke="none" 
	d="
M141.710419,190.783447 
	C139.858124,192.083481 138.277313,193.128647 135.782410,194.778168 
	C137.920135,186.488251 141.660599,180.809372 148.774734,177.733475 
	C149.468124,177.433685 150.755814,177.421570 151.165192,177.850677 
	C151.593582,178.299728 151.661758,179.756836 151.255005,180.232132 
	C148.252808,183.740295 145.092484,187.113144 141.710419,190.783447 
z"/>
<path fill="#000000" opacity="1.000000" stroke="none" 
	d="
M224.398407,178.219330 
	C225.989822,178.012283 227.252060,177.998230 228.514282,177.984161 
	C228.364868,179.155914 228.652771,180.748947 227.995377,181.431335 
	C223.587601,186.006744 218.978729,190.388428 213.773987,194.232605 
	C215.200806,187.494965 218.211441,181.993134 224.398407,178.219330 
z"/>
<path fill="#000000" opacity="1.000000" stroke="none" 
	d="
M169.745789,181.703781 
	C172.249069,179.739044 174.497009,178.036743 177.060593,176.095428 
	C178.442657,182.153412 171.839310,189.798737 162.686295,193.944977 
	C162.280823,193.661438 161.875336,193.377884 161.469864,193.094345 
	C164.143387,189.384979 166.816925,185.675598 169.745789,181.703781 
z"/>
<path fill="#000000" opacity="1.000000" stroke="none" 
	d="
M118.131302,183.095459 
	C118.489082,182.678040 119.052017,182.435013 119.614960,182.192001 
	C119.483353,182.526901 119.351738,182.861786 118.998329,183.388474 
	C118.629852,183.476822 118.483154,183.373352 118.131302,183.095459 
z"/>
</svg>